<?xml version="1.0" encoding="UTF-8" standalone="no"?>
<!-- Created with Inkscape (http://www.inkscape.org/) -->
<svg
   xmlns:dc="http://purl.org/dc/elements/1.1/"
   xmlns:cc="http://web.resource.org/cc/"
   xmlns:rdf="http://www.w3.org/1999/02/22-rdf-syntax-ns#"
   xmlns:svg="http://www.w3.org/2000/svg"
   xmlns="http://www.w3.org/2000/svg"
   xmlns:sodipodi="http://sodipodi.sourceforge.net/DTD/sodipodi-0.dtd"
   xmlns:inkscape="http://www.inkscape.org/namespaces/inkscape"
   width="14"
   height="4.0787082"
   id="svg2778"
   sodipodi:version="0.32"
   inkscape:version="0.44.1"
   version="1.0"
   sodipodi:docbase="/home/simon/workspace/wiki2xhtml-current/design"
   sodipodi:docname="rock-h.svg"
   inkscape:export-filename="/home/simon/workspace/wiki2xhtml-current/style/rock/h-bg.png"
   inkscape:export-xdpi="90"
   inkscape:export-ydpi="90">
  <defs
     id="defs2780" />
  <sodipodi:namedview
     id="base"
     pagecolor="#ffffff"
     bordercolor="#666666"
     borderopacity="1.0"
     inkscape:pageopacity="0.0"
     inkscape:pageshadow="2"
     inkscape:zoom="7.9195959"
     inkscape:cx="24.117502"
     inkscape:cy="6.6988456"
     inkscape:document-units="px"
     inkscape:current-layer="layer1"
     width="14px"
     height="4.0787082px"
     inkscape:window-width="906"
     inkscape:window-height="574"
     inkscape:window-x="366"
     inkscape:window-y="402" />
  <metadata
     id="metadata2783">
    <rdf:RDF>
      <cc:Work
         rdf:about="">
        <dc:format>image/svg+xml</dc:format>
        <dc:type
           rdf:resource="http://purl.org/dc/dcmitype/StillImage" />
      </cc:Work>
    </rdf:RDF>
  </metadata>
  <g
     inkscape:label="Ebene 1"
     inkscape:groupmode="layer"
     id="layer1"
     transform="translate(4.375176,-12.06991)">
    <path
       sodipodi:type="star"
       style="opacity:1;fill:#e0f3ff;fill-opacity:1;fill-rule:evenodd;stroke:#183b7c;stroke-width:1.5;stroke-linecap:round;stroke-linejoin:round;stroke-miterlimit:4;stroke-dasharray:none;stroke-dashoffset:0;stroke-opacity:1"
       id="path2786"
       sodipodi:sides="3"
       sodipodi:cx="2.0203052"
       sodipodi:cy="7.1611652"
       sodipodi:r1="9.8104649"
       sodipodi:r2="3.5317674"
       sodipodi:arg1="0.07084896"
       sodipodi:arg2="1.1180465"
       inkscape:flatsided="false"
       inkscape:rounded="-0.21"
       inkscape:randomized="0"
       d="M 11.806158,7.8556451 C 11.9341,6.0528328 1.9399893,11.127704 3.5652413,10.337099 C 5.1904933,9.5464931 -4.9713691,14.276516 -3.4740586,15.288723 C -1.9767481,16.300929 -1.3746604,5.1083402 -1.5026019,6.9111525 C -1.6305435,8.7139648 -0.6459321,-2.4514775 -2.2711841,-1.660872 C -3.8964361,-0.87026643 5.4955865,5.2474513 3.9982761,4.2352446 C 2.5009656,3.2230378 11.678217,9.6584574 11.806158,7.8556451 z "
       transform="matrix(0.219289,0,0,0.219289,-3.415748,12.60739)" />
    <path
       d="M 11.806158,7.8556451 C 11.9341,6.0528328 1.9399893,11.127704 3.5652413,10.337099 C 5.1904933,9.5464931 -4.9713691,14.276516 -3.4740586,15.288723 C -1.9767481,16.300929 -1.3746604,5.1083402 -1.5026019,6.9111525 C -1.6305435,8.7139648 -0.6459321,-2.4514775 -2.2711841,-1.660872 C -3.8964361,-0.87026643 5.4955865,5.2474513 3.9982761,4.2352446 C 2.5009656,3.2230378 11.678217,9.6584574 11.806158,7.8556451 z "
       inkscape:randomized="0"
       inkscape:rounded="-0.21"
       inkscape:flatsided="false"
       sodipodi:arg2="1.1180465"
       sodipodi:arg1="0.07084896"
       sodipodi:r2="3.5317674"
       sodipodi:r1="9.8104649"
       sodipodi:cy="7.1611652"
       sodipodi:cx="2.0203052"
       sodipodi:sides="3"
       id="path2788"
       style="opacity:1;fill:#e0f3ff;fill-opacity:1;fill-rule:evenodd;stroke:#183b7c;stroke-width:1.5;stroke-linecap:round;stroke-linejoin:round;stroke-miterlimit:4;stroke-dasharray:none;stroke-dashoffset:0;stroke-opacity:1"
       sodipodi:type="star"
       transform="matrix(0.109645,0.18991,-0.18991,0.109645,3.473622,12.8719)" />
    <path
       transform="matrix(-0.18991,0.109645,-0.109645,-0.18991,7.803806,15.58255)"
       sodipodi:type="star"
       style="opacity:1;fill:#e0f3ff;fill-opacity:1;fill-rule:evenodd;stroke:#183b7c;stroke-width:1.5;stroke-linecap:round;stroke-linejoin:round;stroke-miterlimit:4;stroke-dasharray:none;stroke-dashoffset:0;stroke-opacity:1"
       id="path2790"
       sodipodi:sides="3"
       sodipodi:cx="2.0203052"
       sodipodi:cy="7.1611652"
       sodipodi:r1="9.8104649"
       sodipodi:r2="3.5317674"
       sodipodi:arg1="0.07084896"
       sodipodi:arg2="1.1180465"
       inkscape:flatsided="false"
       inkscape:rounded="-0.21"
       inkscape:randomized="0"
       d="M 11.806158,7.8556451 C 11.9341,6.0528328 1.9399893,11.127704 3.5652413,10.337099 C 5.1904933,9.5464931 -4.9713691,14.276516 -3.4740586,15.288723 C -1.9767481,16.300929 -1.3746604,5.1083402 -1.5026019,6.9111525 C -1.6305435,8.7139648 -0.6459321,-2.4514775 -2.2711841,-1.660872 C -3.8964361,-0.87026643 5.4955865,5.2474513 3.9982761,4.2352446 C 2.5009656,3.2230378 11.678217,9.6584574 11.806158,7.8556451 z " />
  </g>
</svg>
