<?xml version="1.0" encoding="UTF-8" standalone="no"?>
<!-- Created with Inkscape (http://www.inkscape.org/) -->
<svg
   xmlns:dc="http://purl.org/dc/elements/1.1/"
   xmlns:cc="http://web.resource.org/cc/"
   xmlns:rdf="http://www.w3.org/1999/02/22-rdf-syntax-ns#"
   xmlns:svg="http://www.w3.org/2000/svg"
   xmlns="http://www.w3.org/2000/svg"
   xmlns:xlink="http://www.w3.org/1999/xlink"
   xmlns:sodipodi="http://sodipodi.sourceforge.net/DTD/sodipodi-0.dtd"
   xmlns:inkscape="http://www.inkscape.org/namespaces/inkscape"
   width="800"
   height="123"
   id="svg2"
   sodipodi:version="0.32"
   inkscape:version="0.44.1"
   version="1.0"
   sodipodi:docbase="/home/simon/workspace/wiki2xhtml-current/design"
   sodipodi:docname="simple.svg"
   inkscape:export-filename="/home/simon/workspace/wiki2xhtml-current/style/simple/header.jpg"
   inkscape:export-xdpi="90"
   inkscape:export-ydpi="90">
  <defs
     id="defs4">
    <linearGradient
       id="linearGradient2863">
      <stop
         style="stop-color:white;stop-opacity:0;"
         offset="0"
         id="stop2865" />
      <stop
         style="stop-color:white;stop-opacity:1;"
         offset="1"
         id="stop2867" />
    </linearGradient>
    <linearGradient
       inkscape:collect="always"
       xlink:href="#linearGradient2863"
       id="linearGradient2869"
       x1="698.62152"
       y1="208.91969"
       x2="698.62152"
       y2="54.934757"
       gradientUnits="userSpaceOnUse" />
  </defs>
  <sodipodi:namedview
     id="base"
     pagecolor="#ffffff"
     bordercolor="#666666"
     borderopacity="1.0"
     inkscape:pageopacity="0.0"
     inkscape:pageshadow="2"
     inkscape:zoom="1"
     inkscape:cx="440.29785"
     inkscape:cy="26.045033"
     inkscape:document-units="px"
     inkscape:current-layer="layer2"
     width="800px"
     height="123px"
     inkscape:window-width="1272"
     inkscape:window-height="976"
     inkscape:window-x="0"
     inkscape:window-y="0"
     showguides="true"
     inkscape:guide-bbox="true">
    <sodipodi:guide
       orientation="horizontal"
       position="45.961941"
       id="guide2021" />
    <sodipodi:guide
       orientation="horizontal"
       position="20.506097"
       id="guide2023" />
    <sodipodi:guide
       orientation="horizontal"
       position="90.509668"
       id="guide2025" />
  </sodipodi:namedview>
  <metadata
     id="metadata7">
    <rdf:RDF>
      <cc:Work
         rdf:about="">
        <dc:format>image/svg+xml</dc:format>
        <dc:type
           rdf:resource="http://purl.org/dc/dcmitype/StillImage" />
      </cc:Work>
    </rdf:RDF>
  </metadata>
  <g
     inkscape:groupmode="layer"
     id="layer3"
     inkscape:label="white"
     style="opacity:1">
    <rect
       style="opacity:1;fill:white;fill-opacity:1;fill-rule:evenodd;stroke:none;stroke-width:2;stroke-linecap:round;stroke-linejoin:round;stroke-miterlimit:4;stroke-dasharray:none;stroke-dashoffset:0;stroke-opacity:1"
       id="rect2874"
       width="865"
       height="164"
       x="-27"
       y="-10" />
  </g>
  <g
     inkscape:groupmode="layer"
     id="layer2"
     inkscape:label="mirror"
     style="display:inline">
    <path
       sodipodi:nodetypes="ccccccccccc"
       d="M 685.02982,112.63856 L 670.76506,76.883998 L 683.78351,76.578362 L 690.60473,92.496701 L 716.46801,58.164866 L 723.93666,60.992168 L 731.40533,63.819467 L 705.54208,98.151309 L 727.99776,93.315882 L 734.88039,101.15516 L 685.02982,112.63856 z "
       style="fill:#8192fb;fill-opacity:1;fill-rule:evenodd;stroke:#2d3fa0;stroke-width:5.46610975;stroke-linecap:round;stroke-linejoin:round;stroke-miterlimit:4;stroke-dasharray:none;stroke-opacity:1"
       id="path2857" />
    <rect
       style="opacity:1;fill:url(#linearGradient2869);fill-opacity:1.0;fill-rule:evenodd;stroke:none;stroke-width:2;stroke-linecap:round;stroke-linejoin:round;stroke-miterlimit:4;stroke-dasharray:none;stroke-dashoffset:0;stroke-opacity:1"
       id="rect2861"
       width="122.68303"
       height="81.67083"
       x="632.50702"
       y="46.986019" />
  </g>
  <g
     inkscape:label="Ebene 1"
     inkscape:groupmode="layer"
     id="layer1"
     style="display:inline">
    <path
       style="font-size:100px;font-style:normal;font-variant:normal;font-weight:normal;font-stretch:normal;text-align:start;line-height:125%;writing-mode:lr-tb;text-anchor:start;fill:black;fill-opacity:1;stroke:none;stroke-width:1px;stroke-linecap:butt;stroke-linejoin:miter;stroke-opacity:1;font-family:Trebuchet MS"
       d="M 38.100476,82.246586 L 40.903313,74.716591 C 45.337633,77.617041 48.907403,79.06726 51.612639,79.067255 C 56.521057,79.06726 58.97528,77.003487 58.9753,72.875925 C 58.97528,69.91972 56.604719,67.381835 51.86364,65.262263 C 48.210183,63.588953 45.742018,62.320011 44.459143,61.455433 C 43.20413,60.590902 42.102526,59.614793 41.154314,58.527101 C 40.233971,57.411574 39.536751,56.240243 39.062645,55.013104 C 38.616417,53.758135 38.393312,52.419471 38.393312,50.997107 C 38.393312,47.315813 39.731969,44.443262 42.409309,42.379445 C 45.086633,40.315714 48.58668,39.283826 52.90947,39.283781 C 56.172447,39.283826 60.28605,40.315714 65.2503,42.379445 L 62.9913,49.742107 C 59.83983,47.232146 56.674441,45.977148 53.495133,45.97711 C 51.598674,45.977148 49.995068,46.42337 48.684306,47.315776 C 47.401406,48.208256 46.75996,49.337754 46.759969,50.704273 C 46.75996,53.576858 48.391462,55.752188 51.654465,57.230269 L 57.343799,59.823934 C 60.82988,61.413623 63.36777,63.226398 64.95746,65.262263 C 66.54709,67.298169 67.34192,69.849998 67.34196,72.917759 C 67.34192,76.933764 65.93354,80.085203 63.11679,82.372086 C 60.29999,84.631085 56.395553,85.760583 51.403473,85.760584 C 46.690238,85.760583 42.255909,84.589251 38.100476,82.246586 M 83.86611,23.177958 C 85.23266,23.17802 86.39005,23.666074 87.33828,24.642123 C 88.31437,25.590404 88.80243,26.733847 88.80245,28.072454 C 88.80243,29.439065 88.31437,30.610396 87.33828,31.586452 C 86.39005,32.534727 85.23266,33.008837 83.86611,33.008785 C 82.52744,33.008837 81.37005,32.534727 80.39395,31.586452 C 79.44572,30.610396 78.97161,29.439065 78.97162,28.072454 C 78.97161,26.705958 79.44572,25.548571 80.39395,24.60029 C 81.34216,23.652129 82.49954,23.17802 83.86611,23.177958 M 79.51545,84.923918 L 79.51545,46.813776 L 73.36595,46.813776 L 73.36595,40.120447 L 87.46378,40.120447 L 87.46378,84.923918 L 79.51545,84.923918 M 152.13807,84.923918 L 152.13807,56.560936 C 152.13801,49.505087 149.08418,45.977148 142.97657,45.97711 C 141.05219,45.977148 139.25337,46.576758 137.58007,47.775942 C 135.9067,48.947311 134.76326,50.285975 134.14975,51.791939 L 134.14975,84.923918 L 126.20141,84.923918 L 126.20141,53.088772 C 126.20139,50.885585 125.36472,49.156477 123.69142,47.901441 C 122.04595,46.618592 119.85667,45.977148 117.12359,45.97711 C 115.53391,45.977148 113.83268,46.590703 112.01993,47.817775 C 110.23503,49.044921 108.96608,50.39753 108.2131,51.875605 L 108.2131,84.923918 L 100.26477,84.923918 L 100.26477,40.120447 L 105.45209,40.120447 L 108.0876,45.307777 C 111.15536,41.291823 114.99007,39.283826 119.59176,39.283781 C 126.00616,39.283826 130.49627,41.277879 133.06208,45.265944 C 133.95449,43.564764 135.61387,42.142432 138.04024,40.998946 C 140.46653,39.855547 142.96258,39.283826 145.52841,39.283781 C 150.1579,39.283826 153.74162,40.664324 156.27957,43.425278 C 158.81739,46.158426 160.08633,50.007086 160.08639,54.971271 L 160.08639,84.923918 L 152.13807,84.923918 M 179.49705,82.455753 L 179.49705,102.4939 L 171.54872,102.4939 L 171.54872,40.120447 L 179.49705,40.120447 L 179.49705,43.801777 C 182.50903,40.789824 186.14852,39.283826 190.41555,39.283781 C 196.77417,39.283826 201.72444,41.263934 205.26637,45.22411 C 208.80821,49.184365 210.57915,54.985245 210.57919,62.626765 C 210.57915,69.431665 208.79427,74.99549 205.22453,79.318254 C 201.65472,83.613142 196.49528,85.760583 189.74621,85.760584 C 187.84975,85.760583 185.81386,85.425917 183.63855,84.756585 C 181.49109,84.087253 180.11059,83.320309 179.49705,82.455753 M 179.49705,49.78394 L 179.49705,75.887923 C 179.99904,76.640931 181.05881,77.366041 182.67638,78.063256 C 184.29392,78.732595 185.86963,79.06726 187.40354,79.067255 C 197.27617,79.06726 202.21249,73.489492 202.21254,62.333933 C 202.21249,56.67252 201.04117,52.531027 198.69853,49.90944 C 196.35584,47.287925 192.60479,45.977148 187.44538,45.97711 C 186.3298,45.977148 184.96325,46.367592 183.34571,47.148442 C 181.72814,47.929368 180.44526,48.807866 179.49705,49.78394 M 219.86619,72.248426 L 219.86619,21.755625 L 227.81452,21.755625 L 227.81452,70.90976 C 227.8145,73.308215 228.49778,75.204656 229.86435,76.59909 C 231.25878,77.965651 233.07155,78.648928 235.30268,78.648921 L 235.30268,85.760584 C 225.01167,85.760583 219.86619,81.256534 219.86619,72.248426 M 282.23965,63.296098 L 249.94434,63.296098 C 249.94432,68.539222 251.3806,72.569161 254.25316,75.385924 C 256.79103,77.840151 260.05403,79.06726 264.04217,79.067255 C 268.58802,79.06726 272.3809,77.742541 275.42082,75.093091 L 278.76749,80.824254 C 277.54034,82.051367 275.65783,83.111143 273.11999,84.003585 C 269.94062,85.174917 266.39874,85.760583 262.49433,85.760584 C 256.86076,85.760583 252.07783,83.850197 248.14551,80.02942 C 243.76694,75.81821 241.57767,70.156775 241.57767,63.045099 C 241.57767,55.654577 243.82273,49.728198 248.31284,45.265944 C 252.32882,41.277879 257.08387,39.283826 262.57799,39.283781 C 268.96451,39.283826 273.97057,41.082656 277.59615,44.680277 C 281.11011,48.138534 282.8671,52.726248 282.86715,58.443435 C 282.8671,60.200458 282.65794,61.818011 282.23965,63.296098 M 262.95449,45.97711 C 259.41259,45.977148 256.44242,47.120591 254.044,49.407441 C 251.7571,51.582806 250.46027,54.288023 250.15351,57.523102 L 274.96066,57.523102 C 274.96061,54.315912 273.95662,51.638583 271.94866,49.491107 C 269.7454,47.14848 266.74735,45.977148 262.95449,45.97711 M 300.35347,73.168759 C 302.08257,73.168771 303.56068,73.782325 304.7878,75.009424 C 306.01489,76.236543 306.62844,77.714652 306.62847,79.443755 C 306.62844,81.172868 306.01489,82.664921 304.7878,83.919918 C 303.56068,85.147028 302.08257,85.760583 300.35347,85.760584 C 298.62435,85.760583 297.14624,85.147028 295.91914,83.919918 C 294.69202,82.664921 294.07847,81.172868 294.07848,79.443755 C 294.07847,77.714652 294.69202,76.236543 295.91914,75.009424 C 297.14624,73.782325 298.62435,73.168771 300.35347,73.168759"
       id="text1994" />
    <path
       id="path2927"
       style="fill:#8192fb;fill-opacity:1;fill-rule:evenodd;stroke:#2d3fa0;stroke-width:5;stroke-linecap:round;stroke-linejoin:round;stroke-miterlimit:4;stroke-dasharray:none;stroke-opacity:1"
       d="M 685.61136,104.9939 L 657.62214,75.903578 L 666.30985,70.887731 L 679.09054,83.668423 L 679.09054,41.383589 L 685.61136,41.383589 L 692.13217,41.383589 L 692.13217,83.668423 L 704.91286,70.887731 L 713.60057,75.903578 L 685.61136,104.9939 z "
       sodipodi:nodetypes="ccccccccccc" />
  </g>
</svg>
